<svg width="21" height="21" viewBox="0 0 21 21" fill="none" xmlns="http://www.w3.org/2000/svg">
<path d="M9.23975 9.84375H11.2085" stroke="#A2A9CB" stroke-width="2" stroke-linecap="round" stroke-linejoin="round"/>
<path d="M18.2697 10.3612C15.8762 11.7459 13.1591 12.473 10.394 12.4686C7.62933 12.473 4.91268 11.7462 2.51953 10.3619" stroke="#A2A9CB" stroke-width="2" stroke-linecap="round" stroke-linejoin="round"/>
<path d="M14.1226 5.90625V4.59375C14.1226 4.24565 13.9843 3.91181 13.7381 3.66567C13.492 3.41953 13.1582 3.28125 12.8101 3.28125H8.87256C8.52446 3.28125 8.19062 3.41953 7.94448 3.66567C7.69834 3.91181 7.56006 4.24565 7.56006 4.59375V5.90625" stroke="#A2A9CB" stroke-width="2" stroke-linecap="round" stroke-linejoin="round"/>
<path d="M17.6138 5.90625H3.17627C2.81383 5.90625 2.52002 6.20006 2.52002 6.5625V17.0625C2.52002 17.4249 2.81383 17.7188 3.17627 17.7188H17.6138C17.9762 17.7188 18.27 17.4249 18.27 17.0625V6.5625C18.27 6.20006 17.9762 5.90625 17.6138 5.90625Z" stroke="#A2A9CB" stroke-width="2" stroke-linecap="round" stroke-linejoin="round"/>
</svg>
