<svg width="21" height="21" viewBox="0 0 21 21" fill="none" xmlns="http://www.w3.org/2000/svg">
<path d="M10.5 8.85938C11.0437 8.85938 11.4844 8.41866 11.4844 7.875C11.4844 7.33134 11.0437 6.89062 10.5 6.89062C9.95634 6.89062 9.51562 7.33134 9.51562 7.875C9.51562 8.41866 9.95634 8.85938 10.5 8.85938Z" fill="#B8BED9"/>
<path d="M14.8912 9.07585L17.5123 12.2211C17.5766 12.2982 17.6223 12.389 17.6459 12.4865C17.6696 12.584 17.6706 12.6857 17.6488 12.7836L16.6347 17.3473C16.6105 17.4561 16.559 17.5569 16.4851 17.6403C16.4111 17.7237 16.3172 17.7869 16.2121 17.8239C16.107 17.8609 15.9942 17.8706 15.8843 17.8519C15.7744 17.8333 15.6711 17.787 15.5841 17.7174L13.125 15.7501" stroke="#B8BED9" stroke-width="2" stroke-linecap="round" stroke-linejoin="round"/>
<path d="M6.05925 9.13509L3.48755 12.2211C3.42332 12.2982 3.37761 12.389 3.35395 12.4865C3.33029 12.584 3.32931 12.6856 3.35108 12.7836L4.36522 17.3473C4.3894 17.456 4.44088 17.5569 4.51481 17.6403C4.58874 17.7237 4.68269 17.7868 4.7878 17.8239C4.89291 17.8609 5.00572 17.8705 5.11559 17.8519C5.22546 17.8333 5.32878 17.787 5.4158 17.7173L7.87488 15.7501" stroke="#B8BED9" stroke-width="2" stroke-linecap="round" stroke-linejoin="round"/>
<path d="M10.0875 1.62141C8.52949 2.86944 3.31855 7.85653 7.87503 15.7502H13.125C17.5868 7.86212 12.4521 2.8765 10.9104 1.62406C10.7942 1.5296 10.6492 1.47781 10.4994 1.47733C10.3497 1.47685 10.2043 1.5277 10.0875 1.62141V1.62141Z" stroke="#B8BED9" stroke-width="2" stroke-linecap="round" stroke-linejoin="round"/>
<path d="M11.8125 18.375H9.1875" stroke="#B8BED9" stroke-width="2" stroke-linecap="round" stroke-linejoin="round"/>
</svg>
