<svg width="22" height="22" viewBox="0 0 22 22" fill="none" xmlns="http://www.w3.org/2000/svg">
<path d="M11 1.83334C9.18701 1.83334 7.41472 2.37096 5.90727 3.37821C4.39982 4.38545 3.22491 5.81709 2.53111 7.49208C1.8373 9.16707 1.65577 11.0102 2.00947 12.7883C2.36317 14.5665 3.23621 16.1998 4.51819 17.4818C5.80017 18.7638 7.43351 19.6368 9.21167 19.9905C10.9898 20.3442 12.8329 20.1627 14.5079 19.4689C16.1829 18.7751 17.6146 17.6002 18.6218 16.0927C19.629 14.5853 20.1667 12.813 20.1667 11C20.1639 8.56972 19.1972 6.23977 17.4787 4.5213C15.7602 2.80282 13.4303 1.83615 11 1.83334ZM14.5256 11.7051H11.7051V14.5256C11.7051 14.7127 11.6308 14.892 11.4986 15.0242C11.3664 15.1565 11.187 15.2308 11 15.2308C10.813 15.2308 10.6336 15.1565 10.5014 15.0242C10.3692 14.892 10.2949 14.7127 10.2949 14.5256V11.7051H7.47436C7.28735 11.7051 7.108 11.6308 6.97576 11.4986C6.84352 11.3664 6.76923 11.187 6.76923 11C6.76923 10.813 6.84352 10.6336 6.97576 10.5014C7.108 10.3692 7.28735 10.2949 7.47436 10.2949H10.2949V7.47437C10.2949 7.28736 10.3692 7.108 10.5014 6.97577C10.6336 6.84353 10.813 6.76924 11 6.76924C11.187 6.76924 11.3664 6.84353 11.4986 6.97577C11.6308 7.108 11.7051 7.28736 11.7051 7.47437V10.2949H14.5256C14.7127 10.2949 14.892 10.3692 15.0242 10.5014C15.1565 10.6336 15.2308 10.813 15.2308 11C15.2308 11.187 15.1565 11.3664 15.0242 11.4986C14.892 11.6308 14.7127 11.7051 14.5256 11.7051Z" fill="white"/>
</svg>
